
<svg xmlns="http://www.w3.org/2000/svg" version="1.1" xmlns:xlink="http://www.w3.org/1999/xlink" width="600" height="185" viewBox="0 0 600 185"><svg xml:space="preserve" width="600" height="185" data-version="2" data-id="lg_cbua0zvarhwhKVRTG4" viewBox="0 0 563 185" x="0" y="0"><rect width="100%" height="100%" fill="transparent"></rect><g transform="translate(95.94 92.5)scale(1.4422)"><linearGradient id="a" x1="0" x2="1" y1="0" y2="0" gradientUnits="objectBoundingBox"><stop offset="0%" stop-color="#ff6cab"></stop><stop offset="100%" stop-color="#7366ff"></stop></linearGradient><rect width="125.29" height="125.29" x="-62.64" y="-62.64" fill="url(#a)" rx="29" ry="29"></rect></g><path d="M295.76 140.76h-65.1V32.26h65.1v12.71h-50.38v33.02h43.4v12.4h-43.4v37.66h50.38zm55.49 0h-14.57l-32.4-76.88 12.71-5.27 27.44 66.34 27.43-66.34 11.94 5.27zm82.61 0h-14.57L386.9 63.88l12.71-5.27 27.43 66.34 27.44-66.34 11.93 5.27zm77.35 1.86q-10.08 0-18.29-5.11-8.22-5.12-13.1-14.49-4.88-9.38-4.88-22.09 0-12.09 4.88-21.7t13.48-15.27q8.61-5.66 19.77-5.66 6.97 0 12.63 2.41 5.66 2.4 9.84 5.96v-6.51h12.71v61.07q0 5.89 2.87 7.68 2.87 1.78 6.28 1.78l-2.95 10.85q-14.88 0-17.98-12.09-3.56 4.96-9.69 9.07-6.12 4.1-15.57 4.1m3.1-12.4q5.89 0 11.16-2.86 5.27-2.87 8.83-7.21V76.9q-4.18-2.94-9.22-4.72-5.04-1.79-10.62-1.79-7.44 0-13.1 3.8-5.65 3.8-8.91 10.54-3.25 6.74-3.25 15.73 0 8.68 3.25 15.43 3.26 6.74 8.99 10.54 5.74 3.79 12.87 3.79" paint-order="stroke"></path><path fill="#fff" d="M95.84 73.98c1.057 0 2.115-.106 3.173-.424l22.009 35.976a18.886 18.886 0 0 1 9.417-4.656l-22.96-37.35a13.724 13.724 0 0 0-11.64-21.057c-7.618 0-13.755 6.137-13.755 13.755S88.22 73.98 95.839 73.98m0-18.834a5.079 5.079 0 1 1-5.079 5.08c-.106-2.752 2.222-5.08 5.08-5.08m24.97 64.756H76.793c.318 1.27.424 2.645.424 4.02a18.41 18.41 0 0 1-1.164 6.455h45.71a13.776 13.776 0 0 0 25.923-6.454 13.724 13.724 0 0 0-26.876-4.021m13.12-1.164a5.079 5.079 0 1 1-5.078 5.079c0-2.751 2.328-5.079 5.079-5.079m-75.972 18.94a13.728 13.728 0 0 0 13.756-13.755c0-3.704-1.482-7.09-3.915-9.629L89.596 78.53a19.65 19.65 0 0 1-8.676-5.925l-22.855 37.563h-.106c-7.618 0-13.755 6.136-13.755 13.755s6.137 13.755 13.755 13.755m0-18.94a5.079 5.079 0 1 1-5.079 5.079c-.105-2.751 2.222-5.079 5.08-5.079"></path></svg></svg>